<?xml version="1.0" encoding="utf-8"?>

<!-- Generator: Adobe Illustrator 15.1.0, SVG Export Plug-In . SVG Version: 6.00 Build 0)  -->

<!DOCTYPE svg PUBLIC "-//W3C//DTD SVG 1.1//EN" "http://www.w3.org/Graphics/SVG/1.1/DTD/svg11.dtd">

<svg version="1.1" id="Layer_1" xmlns="http://www.w3.org/2000/svg" xmlns:xlink="http://www.w3.org/1999/xlink" x="0px" y="0px"

 width="640px" height="640px" viewBox="0 0 640 640" enable-background="new 0 0 640 640" xml:space="preserve">

<path fill-rule="evenodd" clip-rule="evenodd" fill="#181617" d="M319.59,0C144.748,0,2.972,141.757,2.972,316.656

c0,139.868,90.714,258.543,216.555,300.417c15.841,2.904,21.611-6.871,21.611-15.262c0-7.517-0.266-27.447-0.427-53.852

c-88.066,19.115-106.65-42.463-106.65-42.463c-14.407-36.559-35.164-46.277-35.164-46.277c-28.748-19.666,2.173-19.285,2.173-19.285

c31.786,2.277,48.499,32.648,48.499,32.648c28.245,48.385,74.096,34.395,92.157,26.309c2.875-20.463,11.038-34.414,20.092-42.33

c-70.3-7.972-144.225-35.154-144.225-156.486c0-34.556,12.348-62.82,32.602-84.963c-3.265-8.01-14.132-40.194,3.084-83.795

c0,0,26.594-8.514,87.08,32.468c25.255-7.042,52.352-10.544,79.268-10.677c26.878,0.133,53.966,3.635,79.269,10.677

c60.457-40.982,86.994-32.468,86.994-32.468c17.273,43.601,6.396,75.785,3.132,83.795c20.292,22.143,32.554,50.407,32.554,84.963

c0,121.637-74.029,148.4-144.566,156.24c11.371,9.775,21.488,29.1,21.488,58.635c0,42.33-0.38,76.479-0.38,86.861

c0,8.466,5.694,18.318,21.772,15.224c125.698-41.95,216.355-160.549,216.355-300.379C636.246,141.757,494.471,0,319.59,0"/>

</svg>
