<?xml version="1.0" encoding="utf-8"?>

<!-- Generator: Adobe Illustrator 15.1.0, SVG Export Plug-In . SVG Version: 6.00 Build 0)  -->

<!DOCTYPE svg PUBLIC "-//W3C//DTD SVG 1.1//EN" "http://www.w3.org/Graphics/SVG/1.1/DTD/svg11.dtd">

<svg version="1.1" id="Layer_1" xmlns="http://www.w3.org/2000/svg" xmlns:xlink="http://www.w3.org/1999/xlink" x="0px" y="0px"

 width="640px" height="640px" viewBox="0 0 640 640" enable-background="new 0 0 640 640" xml:space="preserve">

<path fill-rule="evenodd" clip-rule="evenodd" d="M552.237,176.184L413.693,37.64c0,0-5.36-6.64-18.693-6.64S93,31,93,31

c-6.627,0-12,5.373-12,12v554c0,6.627,5.373,12,12,12h454c6.627,0,12-5.373,12-12c0,0,0-400.023,0-403.917

C559,182.333,552.237,176.184,552.237,176.184z M211,126.367c0-2.412,1.955-4.367,4.367-4.367h209.266

c2.412,0,4.367,1.955,4.367,4.367v30.266c0,2.412-1.955,4.367-4.367,4.367H215.367c-2.412,0-4.367-1.955-4.367-4.367V126.367z

 M489,513.633c0,2.412-1.955,4.367-4.367,4.367H155.367c-2.412,0-4.367-1.955-4.367-4.367v-30.266c0-2.412,1.955-4.367,4.367-4.367

h329.266c2.412,0,4.367,1.955,4.367,4.367V513.633z M489,424.633c0,2.412-1.955,4.367-4.367,4.367H155.367

c-2.412,0-4.367-1.955-4.367-4.367v-30.266c0-2.412,1.955-4.367,4.367-4.367h329.266c2.412,0,4.367,1.955,4.367,4.367V424.633z

 M489,335.633c0,2.412-1.955,4.367-4.367,4.367H155.367c-2.412,0-4.367-1.955-4.367-4.367v-30.266c0-2.412,1.955-4.367,4.367-4.367

h329.266c2.412,0,4.367,1.955,4.367,4.367V335.633z M489,245.633c0,2.412-1.955,4.367-4.367,4.367H155.367

c-2.412,0-4.367-1.955-4.367-4.367v-30.266c0-2.412,1.955-4.367,4.367-4.367h329.266c2.412,0,4.367,1.955,4.367,4.367V245.633z"/>

</svg>
